<svg xmlns="http://www.w3.org/2000/svg" x="0px" y="0px"
width="40" height="40"
viewBox="0 0 172 172"
style=" fill:#000000;"><g fill="none" fill-rule="nonzero" stroke="none" stroke-width="1" stroke-linecap="butt" stroke-linejoin="miter" stroke-miterlimit="10" stroke-dasharray="" stroke-dashoffset="0" font-family="none" font-weight="none" font-size="none" text-anchor="none" style="mix-blend-mode: normal"><path d="M0,172v-172h172v172z" fill="none"></path><g fill="#e7912d"><path d="M92.88,6.88c-2.06937,0 -4.12531,0.77938 -5.6975,2.365l-43.86,43.7525l-9.7825,9.89l-3.44,-16.0175c-2.08281,-9.40625 -11.73094,-14.99625 -20.9625,-12.255l-2.2575,0.645l7.955,55.7925c-0.87344,8.6 2.01563,17.49563 8.6,24.08l12.47,12.47c5.02563,5.02563 11.5025,7.87438 18.06,8.4925l-25.9075,-45.15c-1.69312,-2.95625 -0.95406,-6.70531 1.72,-8.815l1.8275,-1.3975c4.17906,-3.29219 9.20469,-5.0525 14.5125,-5.0525c7.80719,0 15.07688,3.85656 19.4575,10.32l2.15,3.1175l0.5375,-1.1825l24.295,-56.4375l-24.08,24.08l-2.365,-2.365l32.465,-32.5725c3.15781,-3.15781 3.15781,-8.23719 0,-11.395c-1.57219,-1.57219 -3.62812,-2.365 -5.6975,-2.365zM115.7775,11.825c-2.15,0 -4.27312,0.83313 -5.9125,2.4725l-8.9225,8.815c1.73344,-0.68531 3.655,-1.075 5.59,-1.075c2.0425,0 4.03125,0.36281 5.9125,1.1825c1.49156,0.645 2.795,1.53188 3.9775,2.58c1.73344,-3.03687 4.46125,-5.29437 7.6325,-6.5575c-0.215,-1.81406 -0.98094,-3.56094 -2.365,-4.945c-1.63937,-1.63937 -3.7625,-2.4725 -5.9125,-2.4725zM129.7525,25.0475c-3.26531,-0.02687 -6.35594,1.85438 -7.74,5.0525l-23.22,53.6425l-3.1175,-1.29l18.275,-42.2475c1.77375,-4.09844 -0.20156,-8.86875 -4.3,-10.6425c-4.09844,-1.77375 -8.76125,0.09406 -10.535,4.1925l-24.6175,56.8675l-5.4825,12.7925l-9.1375,-13.545c-5.40187,-7.98187 -16.39375,-9.72875 -23.9725,-3.7625l-1.8275,1.3975l27.95,48.9125c2.365,8.31781 8.33125,15.54719 16.8775,19.2425l16.2325,7.095c14.87531,6.42313 32.16938,-0.51062 38.5925,-15.3725l17.63,-40.9575l13.115,-30.2075c1.81406,-4.21937 -0.18812,-9.15094 -4.4075,-10.965c-4.21937,-1.81406 -9.04344,0.08063 -10.8575,4.3l-13.115,30.315l-2.9025,-1.29l20.64,-47.73c1.85438,-4.28656 -0.12094,-9.33906 -4.4075,-11.18c-4.28656,-1.84094 -9.33906,0.12094 -11.18,4.4075l-20.64,47.8375l-3.3325,-1.505l23.1125,-53.6425c1.84094,-4.25969 -0.04031,-9.23156 -4.3,-11.0725c-1.06156,-0.45687 -2.24406,-0.63156 -3.3325,-0.645z"></path></g></g></svg>